<svg id="Layer_1" data-name="Layer 1" xmlns="http://www.w3.org/2000/svg" viewBox="0 0 565.74 65.7"><defs><style>.cls-1{fill:#2a2635;}.cls-2{fill:#2a3478;}</style></defs><path class="cls-1" d="M55.68,12.87V24.75H21.75V38.52H52.89v11H21.75V65.25H56.4V77.13H7.62V12.87Z" transform="translate(-7.62 -12.87)"/><path class="cls-1" d="M60.9,24.75V12.87h52.65V24.75H94.29V77.13H80.16V24.75Z" transform="translate(-7.62 -12.87)"/><path class="cls-2" d="M174.93,12.87a26.77,26.77,0,0,1,10.26,1.75,19.23,19.23,0,0,1,6.89,4.64A17.81,17.81,0,0,1,196,25.83a24.63,24.63,0,0,1,0,15.25,17.77,17.77,0,0,1-3.87,6.62,19.21,19.21,0,0,1-6.89,4.63,26.76,26.76,0,0,1-10.26,1.76H160.08v23H146V12.87Zm-3.87,30.24a29.59,29.59,0,0,0,4.68-.36,10.89,10.89,0,0,0,4-1.4,7.53,7.53,0,0,0,2.75-2.92,10.28,10.28,0,0,0,1-5,10.28,10.28,0,0,0-1-4.95,7.63,7.63,0,0,0-2.75-2.93,11.07,11.07,0,0,0-4-1.39,29.59,29.59,0,0,0-4.68-.36h-11V43.11Z" transform="translate(-7.62 -12.87)"/><path class="cls-2" d="M240.63,12.87a20.75,20.75,0,0,1,7.79,1.39,18.3,18.3,0,0,1,5.94,3.83,16.83,16.83,0,0,1,3.78,5.62,18.25,18.25,0,0,1,1.3,6.89,19.42,19.42,0,0,1-2.38,9.81,15,15,0,0,1-7.79,6.3v.18a10.89,10.89,0,0,1,4.32,2.2,12.23,12.23,0,0,1,2.79,3.51A16.72,16.72,0,0,1,258,57.06a40.53,40.53,0,0,1,.67,4.86q.09,1.53.18,3.6c.06,1.38.17,2.79.32,4.23a27,27,0,0,0,.72,4.09,9.22,9.22,0,0,0,1.48,3.29H247.2a24.91,24.91,0,0,1-1.44-7.29q-.27-4.23-.81-8.1-.72-5-3.06-7.38T234.24,52H220.11V77.13H206V12.87Zm-5,29.07q4.86,0,7.29-2.16t2.43-7c0-3.12-.81-5.38-2.43-6.8s-4-2.11-7.29-2.11H220.11V41.94Z" transform="translate(-7.62 -12.87)"/><path class="cls-2" d="M319,12.87V24.75H285.09V38.52h31.14v11H285.09V65.25h34.65V77.13H271V12.87Z" transform="translate(-7.62 -12.87)"/><path class="cls-2" d="M349.17,12.87l15,44.19h.18L378.6,12.87h19.89V77.13H385.26V31.59h-.18L369.33,77.13H358.44L342.69,32h-.18V77.13H329.28V12.87Z" transform="translate(-7.62 -12.87)"/><path class="cls-2" d="M425,12.87V77.13H410.91V12.87Z" transform="translate(-7.62 -12.87)"/><path class="cls-2" d="M484.71,72.22q-7.29,6.34-20.16,6.35-13.05,0-20.21-6.3t-7.15-19.44v-40h14.13v40a29.13,29.13,0,0,0,.45,5.13,10,10,0,0,0,5.89,7.6,16.3,16.3,0,0,0,6.89,1.22q7.56,0,10.44-3.38t2.88-10.57v-40H492v40Q492,65.88,484.71,72.22Z" transform="translate(-7.62 -12.87)"/><path class="cls-2" d="M524,12.87l15,44.19h.18l14.22-44.19h19.89V77.13H560.13V31.59H560L544.2,77.13H533.31L517.56,32h-.18V77.13H504.15V12.87Z" transform="translate(-7.62 -12.87)"/></svg>